<svg id="Icons" height="50" viewBox="0 0 74 74" width="50" xmlns="http://www.w3.org/2000/svg"><path d="m37 65.074a28.074 28.074 0 1 1 28.074-28.074 28.106 28.106 0 0 1 -28.074 28.074zm0-54.148a26.074 26.074 0 1 0 26.074 26.074 26.1 26.1 0 0 0 -26.074-26.074z"/><path d="m18.06 32.509a1 1 0 0 1 -.966-1.264 20.233 20.233 0 0 1 14.122-14.137 1 1 0 0 1 .528 1.93 18.222 18.222 0 0 0 -12.72 12.733 1 1 0 0 1 -.964.738z"/><path d="m50.96 45.73a1 1 0 0 1 -.727-1.687q1.026-1.084 1.991-2.168a1 1 0 1 1 1.493 1.33q-.985 1.106-2.03 2.212a1 1 0 0 1 -.727.313z"/><path d="m9.983 71.977a7.976 7.976 0 0 1 -5.883-2.077c-4.2-4.172-1.953-13.906 6.025-26.034a1 1 0 0 1 1.67 1.1c-7.3 11.1-9.71 20.118-6.28 23.521 3.408 3.436 12.422 1.028 23.526-6.275a.977.977 0 0 1 .088-.053 107.329 107.329 0 0 0 8.871-6.611 1 1 0 1 1 1.272 1.543 109.347 109.347 0 0 1 -9.124 6.783.887.887 0 0 1 -.094.055c-8.062 5.293-15.066 8.048-20.071 8.048z"/><path d="m43.931 52.71a1 1 0 0 1 -.676-1.738c.531-.486 1.056-.983 1.584-1.483l.524-.5a1 1 0 1 1 1.373 1.455l-.522.493c-.536.508-1.069 1.013-1.609 1.507a1 1 0 0 1 -.674.266z"/><path d="m57.509 38.18a1 1 0 0 1 -.782-1.622c1.988-2.5 3.814-5 5.428-7.432a.9.9 0 0 1 .05-.085c7.3-11.1 9.71-20.118 6.28-23.521-3.407-3.435-12.421-1.027-23.526 6.28a1 1 0 1 1 -1.1-1.67c12.13-7.983 21.863-10.23 26.041-6.025 4.194 4.163 1.963 13.864-5.973 25.956a1.028 1.028 0 0 1 -.053.091c-1.658 2.5-3.536 5.076-5.582 7.65a.994.994 0 0 1 -.783.378z"/></svg>