<?xml version="1.0"?>
<svg xmlns="http://www.w3.org/2000/svg" viewBox="0 0 128 128" width="40" height="40"><title>1</title><g id="number"><text transform="translate(60.261 -54.265)" font-size="40" fill="#24253a" font-family="MyriadPro-Regular, Myriad Pro" letter-spacing="0.002em">9<tspan x="-10.3" y="228">19</tspan><tspan x="-10.3" y="456">29</tspan><tspan x="-10.3" y="684">39</tspan><tspan x="-10.3" y="912">49</tspan><tspan x="-10.3" y="1140">59</tspan><tspan x="-10.3" y="1368">69</tspan><tspan x="-10.3" y="1596">79</tspan><tspan x="-10.3" y="1824">89</tspan><tspan x="-10.3" y="2052">99</tspan><tspan x="-20.599" y="2280">109</tspan><tspan x="-20.599" y="2508">119</tspan><tspan x="-20.599" y="2736">129</tspan><tspan x="-20.599" y="2964">139</tspan><tspan x="-20.599" y="3192">149</tspan><tspan x="-20.599" y="3420">159</tspan><tspan x="-20.599" y="3648">169</tspan><tspan x="-20.599" y="3876">179</tspan><tspan x="-20.599" y="4104">189</tspan><tspan x="-20.599" y="4332">199</tspan><tspan x="-20.599" y="4560">209</tspan><tspan x="-20.599" y="4788">219</tspan><tspan x="-20.599" y="5016">229</tspan><tspan x="-20.599" y="5244">239</tspan><tspan x="-20.599" y="5472">249</tspan></text></g><g id="icon"><circle cx="60.439" cy="60.445" r="56.928" transform="translate(-25.039 60.441) rotate(-45)" fill="#ffc943"/><path d="M100.694,20.189A56.927,56.927,0,0,1,47.5,115.883,56.932,56.932,0,0,0,41.6,6.705,56.938,56.938,0,0,1,100.694,20.189Z" fill="#f7b521"/><path d="M60.439,118.374a57.928,57.928,0,0,1-40.962-98.89h0A57.928,57.928,0,0,1,101.4,101.407,57.548,57.548,0,0,1,60.439,118.374Zm0-113.857A55.562,55.562,0,0,0,20.892,20.9h0A55.929,55.929,0,1,0,60.438,4.517ZM20.185,20.19h0Z" fill="#2f3a5a"/><path d="M49.977,49.977C16.058,83.9-5.151,117.657,2.6,125.4S44.1,111.942,78.023,78.023,133.152,10.342,125.4,2.6,83.886,16.068,49.977,49.977ZM74.2,74.2C49.512,98.893,24.937,114.345,19.3,108.7S29.107,78.488,53.8,53.8s49.265-40.121,54.9-34.491S98.883,49.522,74.2,74.2Z" fill="#d9e2e9"/><path d="M7.261,127.994a7.288,7.288,0,0,1-5.372-1.882c-5.269-5.268,1.4-18.753,7.926-29.138,8.986-14.305,23-31.247,39.456-47.7l.707.707-.707-.707C65.724,32.817,82.663,18.806,96.97,9.818c10.388-6.526,23.875-13.2,29.142-7.93s-1.4,18.755-7.93,29.142c-8.987,14.307-23,31.247-39.451,47.7C52.446,105.014,21.3,127.993,7.261,127.994ZM120.759,2.011c-4.848,0-12.853,3.3-22.725,9.5-14.184,8.911-31,22.822-47.35,39.172S20.417,83.855,11.508,98.037C3.085,111.446.018,121.412,3.3,124.7a5.417,5.417,0,0,0,3.965,1.309c11.086,0,38.689-17.331,70.049-48.69,16.35-16.35,30.262-33.166,39.172-47.349C124.913,16.555,127.982,6.587,124.7,3.3A5.386,5.386,0,0,0,120.759,2.011Zm-98,108.875a5.649,5.649,0,0,1-4.167-1.476C11.5,102.324,31.076,75.1,53.091,53.09,65.077,41.1,77.425,30.893,87.857,24.338c7.644-4.8,17.585-9.7,21.543-5.739s-.932,13.9-5.735,21.547C97.113,50.572,86.9,62.918,74.909,74.909h0C56.023,93.8,33.3,110.886,22.756,110.886Zm82.536-91.752c-3.437,0-9.209,2.4-16.37,6.9C78.611,32.509,66.389,42.621,54.5,54.5,28.577,80.432,15.512,103.5,20,108a3.643,3.643,0,0,0,2.664.872c7.882,0,28.274-12.819,50.828-35.373,11.889-11.889,22-24.11,28.477-34.413,6.062-9.646,8.311-16.774,6.015-19.069A3.684,3.684,0,0,0,105.292,19.134Z" fill="#2f3a5a"/><path d="M105.381,25.52a56.923,56.923,0,1,0-85.2,75.18,57.412,57.412,0,0,0,5.329,4.687Z" fill="#ffc943"/><path d="M83.621,47.28l21.761-21.761A56.82,56.82,0,0,0,41.6,6.706,56.884,56.884,0,0,1,83.621,47.28Z" fill="#f7b521"/><path d="M25.513,106.387a.992.992,0,0,1-.613-.211,57.928,57.928,0,1,1,81.271-81.27,1,1,0,0,1-1.578,1.229A55.928,55.928,0,1,0,26.128,104.6a1,1,0,0,1-.615,1.789Z" fill="#2f3a5a"/><circle cx="38.323" cy="30.963" r="4.134" fill="#f7b521"/><circle cx="48.318" cy="62.652" r="5.247" fill="#f7b521"/><circle cx="22.272" cy="58.925" r="2.614" fill="#f7b521"/></g></svg>
